<svg width="153" height="125" viewBox="0 0 153 125" fill="none" xmlns="http://www.w3.org/2000/svg">
<path d="M41.3 65.5173C40.116 70.896 40.372 76.5574 42.036 81.8189C37.8573 87.1804 34.3666 93.0308 31.6666 99.1974C34.2946 101.172 47.0506 102.577 55.9266 102.232C57.1533 102.186 58.436 102.219 59.7266 102.252C64.0453 102.365 68.4546 102.477 71.1933 99.5454C74.504 96.0017 73.8146 90.5266 72.4013 85.972C70.936 81.2438 68.868 76.6137 65.6386 72.7652C62.4093 68.9173 57.924 65.8908 52.8493 64.9829C47.776 64.0746 42.1373 65.5137 38.7173 69.208L41.3 65.5173Z" fill="#932F30"/>
<path d="M15.2427 33.5001C14.8547 35.4985 15.42 73.6028 9.656 85.5318C6.54267 85.6709 2.04535 88.4137 0.812022 92.7641C-0.386645 96.9892 3.28533 99.5428 3.28533 99.5428C3.28533 99.5428 12.3587 101.616 18.172 99.547L42.3907 37.5293L15.2427 33.5001Z" fill="#932F30"/>
<mask id="mask0_33_971" style="mask-type:luminance" maskUnits="userSpaceOnUse" x="8" y="64" width="6" height="22">
<path d="M8.95068 85.6042C8.95202 85.6042 8.95202 85.6042 8.95202 85.6042H8.95068ZM9.11605 85.5804C9.12138 85.5804 9.12803 85.5788 9.13337 85.5788C9.1267 85.5788 9.12138 85.5804 9.11605 85.5804ZM9.65602 85.5318C11.812 81.0709 13.0814 72.9454 13.848 64.4189C13.848 64.4198 13.848 64.4198 13.848 64.4198C13.0827 72.947 11.812 81.0709 9.65602 85.5318Z" fill="white"/>
</mask>
<g mask="url(#mask0_33_971)">
<path d="M8.95068 85.6042C8.95202 85.6042 8.95202 85.6042 8.95202 85.6042H8.95068ZM9.11605 85.5804C9.12138 85.5804 9.12803 85.5788 9.13337 85.5788C9.1267 85.5788 9.12138 85.5804 9.11605 85.5804ZM9.65602 85.5318C11.812 81.0709 13.0814 72.9454 13.848 64.4189C13.848 64.4198 13.848 64.4198 13.848 64.4198C13.0827 72.947 11.812 81.0709 9.65602 85.5318Z" fill="url(#paint0_linear_33_971)"/>
</g>
<mask id="mask1_33_971" style="mask-type:luminance" maskUnits="userSpaceOnUse" x="1" y="64" width="17" height="30">
<path d="M10.2226 93.524C6.81057 92.7667 2.97992 91.635 1.43726 91.1746C3.02926 88.0427 6.32257 86.0162 8.95057 85.6042H8.9519C8.95724 85.6042 8.96258 85.6027 8.96658 85.6011C8.96792 85.6011 8.96926 85.6011 8.97059 85.6011C8.97459 85.6 8.9799 85.6001 8.9839 85.5985C8.98524 85.5985 8.98657 85.5985 8.98791 85.5985C9.00124 85.5959 9.01458 85.5948 9.02658 85.5932C9.03058 85.5922 9.03325 85.5922 9.03592 85.5922C9.03859 85.5907 9.04126 85.5907 9.04393 85.5907C9.04793 85.5891 9.05191 85.5891 9.05591 85.5891C9.05724 85.588 9.05858 85.588 9.06125 85.588C9.06525 85.588 9.06926 85.5865 9.07326 85.5865C9.07592 85.5865 9.07726 85.5855 9.07993 85.5855C9.08393 85.5855 9.08791 85.5839 9.09191 85.5839C9.09324 85.5839 9.09592 85.5828 9.09725 85.5828C9.10258 85.5828 9.1066 85.5813 9.1106 85.5813C9.11193 85.5813 9.1146 85.5812 9.11593 85.5803C9.12127 85.5803 9.12658 85.5787 9.13325 85.5787C9.15192 85.576 9.17191 85.5735 9.19058 85.5709C9.34924 85.5522 9.50391 85.5386 9.65591 85.5318C11.8119 81.0709 13.0826 72.947 13.8479 64.4198C16.9639 69.7146 18.5493 83.2105 17.6479 90.0813C17.3399 90.5241 17.0253 90.9626 16.7053 91.3932C15.1626 91.4136 11.9052 91.547 10.2226 93.524Z" fill="white"/>
</mask>
<g mask="url(#mask1_33_971)">
<path d="M10.2226 93.524C6.81057 92.7667 2.97992 91.635 1.43726 91.1746C3.02926 88.0427 6.32257 86.0162 8.95057 85.6042H8.9519C8.95724 85.6042 8.96258 85.6027 8.96658 85.6011C8.96792 85.6011 8.96926 85.6011 8.97059 85.6011C8.97459 85.6 8.9799 85.6001 8.9839 85.5985C8.98524 85.5985 8.98657 85.5985 8.98791 85.5985C9.00124 85.5959 9.01458 85.5948 9.02658 85.5932C9.03058 85.5922 9.03325 85.5922 9.03592 85.5922C9.03859 85.5907 9.04126 85.5907 9.04393 85.5907C9.04793 85.5891 9.05191 85.5891 9.05591 85.5891C9.05724 85.588 9.05858 85.588 9.06125 85.588C9.06525 85.588 9.06926 85.5865 9.07326 85.5865C9.07592 85.5865 9.07726 85.5855 9.07993 85.5855C9.08393 85.5855 9.08791 85.5839 9.09191 85.5839C9.09324 85.5839 9.09592 85.5828 9.09725 85.5828C9.10258 85.5828 9.1066 85.5813 9.1106 85.5813C9.11193 85.5813 9.1146 85.5812 9.11593 85.5803C9.12127 85.5803 9.12658 85.5787 9.13325 85.5787C9.15192 85.576 9.17191 85.5735 9.19058 85.5709C9.34924 85.5522 9.50391 85.5386 9.65591 85.5318C11.8119 81.0709 13.0826 72.947 13.8479 64.4198C16.9639 69.7146 18.5493 83.2105 17.6479 90.0813C17.3399 90.5241 17.0253 90.9626 16.7053 91.3932C15.1626 91.4136 11.9052 91.547 10.2226 93.524Z" fill="url(#paint1_linear_33_971)"/>
</g>
<path d="M151.373 97.8908C144.336 80.8709 113.501 82.3559 107.672 82.9335C110.061 75.1147 113.971 65.5589 113.753 51.2241C113.344 24.2641 91.408 10.5147 67.7134 17.9548C65.372 16.7053 63.524 15.3215 62.048 13.86C59.672 12.1319 57.848 9.5428 56.9414 6.1028C56.5134 4.47746 55.8613 2.07612 55.7587 0.396125C49.5253 -0.0105418 43.524 2.14013 37.2374 3.0788C33.4147 3.64947 29.608 4.36013 25.824 5.17213C24.7733 10.9908 21.012 18.3804 13.336 26.1589C11.2494 45.6923 25.8534 60.8403 47.9694 75.1923C70.084 89.5439 89.8587 86.0095 89.8587 86.0095L87.444 96.9428C87.924 97.896 91.952 100.005 94.5814 99.5283C102.728 97.9387 142.535 94.4548 135.348 107.959C135.387 107.883 136.06 109.103 137.515 110.321C139.272 111.796 142.169 113.269 146.463 112.457C149.432 111.609 153.987 104.211 151.373 97.8908Z" fill="#FF6837"/>
<path d="M64.0026 15.5522C63.2946 15.0017 62.632 14.4386 62.048 13.8599C59.672 12.1318 57.848 9.54275 56.9413 6.10275C56.5133 4.47875 55.8613 2.07608 55.7586 0.39608C49.5253 -0.010587 43.524 2.14009 37.2373 3.07875C33.4146 3.64942 29.608 4.36008 25.824 5.17208C24.7733 10.9907 21.012 18.3803 13.336 26.1589C12.9973 29.3214 13.104 32.3684 13.6026 35.3173C16.8466 36.2949 20.2746 36.6531 24.1893 36.7522C35.5026 37.035 53.728 32.3105 64.0026 15.5522Z" fill="#FE802E"/>
<path d="M113.427 59.2787C113.668 56.7651 113.796 54.0949 113.753 51.2241C113.375 26.2589 94.5346 12.6375 72.936 16.6615C68.1107 27.9241 61.524 56.0307 78.2707 72.4563C90.7026 84.6495 104.811 69.0933 113.427 59.2787Z" fill="#FF7234"/>
<path d="M74.1986 16.4574C71.1466 27.6079 70.9773 42.3375 84.2919 55.3959C95.0199 65.9173 105.497 62.4985 113.707 55.0589C113.753 53.8173 113.773 52.5438 113.753 51.2241C113.381 26.7479 95.2626 13.1865 74.1986 16.4574Z" fill="#FE802E"/>
<path d="M31.9613 48.4719C31.9613 48.4719 35.6799 51.1173 41.5213 56.2001C48.9813 62.6933 60.7679 59.9069 69.5559 70.623C76.8719 83.0293 73.6346 91.735 73.6346 91.735C73.6346 91.735 51.0479 86.3266 27.7853 61.8386C25.2586 59.1787 13.2946 45.4746 12.4213 41.1069C16.8746 38.8787 31.9613 48.4719 31.9613 48.4719Z" fill="#DFA680"/>
<path d="M37.2 1.42546C33.68 1.95079 31.02 1.94946 28.5133 1.94813C25.7466 1.9468 23.1653 1.94413 19.8186 2.6508L19.6186 2.60946C19.4973 2.66013 19.3826 2.72413 19.2626 2.77613C18.62 2.92279 17.96 3.08546 17.2546 3.28946C17.2173 3.30013 13.3946 6.01987 11.9 7.25067C8.5693 9.99494 5.85463 13.4283 4.06396 17.2761C4.9533 16.0308 6.36264 15.1387 7.90531 14.8413C5.00797 19.884 5.05598 25.9455 5.17865 31.7028C5.54798 30.3575 6.62931 29.3923 7.91198 28.6736C8.24265 32.0225 9.11198 35.1933 10.416 38.1975C14.8053 48.3095 33.5026 57.3736 33.4586 56.8105C32.956 50.2985 32.6066 43.8241 32.9613 37.3308C31.7146 35.2028 30.4586 32.9455 29.192 30.5439C29.6306 26.4975 32.5866 22.4985 36.664 18.6215C39.1293 11.9856 42.84 5.8148 47.8333 0.918802V0.905472C44.076 0.898805 40.3266 0.958792 37.2 1.42546Z" fill="#FFD09C"/>
<mask id="mask2_33_971" style="mask-type:luminance" maskUnits="userSpaceOnUse" x="54" y="59" width="48" height="36">
<path d="M88.3133 94.8455C88.2813 94.0283 88.3146 93.1548 88.4186 92.2199C88.4186 92.2189 88.4186 92.2173 88.42 92.2173C88.4213 92.2043 88.4226 92.1892 88.424 92.1761C88.424 92.1747 88.424 92.172 88.4253 92.1695C88.4266 92.1548 88.428 92.1413 88.4293 92.1283C88.4293 92.1267 88.4293 92.1256 88.4293 92.1256C88.432 92.1105 88.4333 92.096 88.4346 92.0829C88.436 92.0761 88.436 92.0709 88.4373 92.0641C88.4373 92.0575 88.4386 92.0496 88.44 92.0413C88.44 92.0351 88.4413 92.0256 88.4426 92.0189C88.4426 92.0137 88.444 92.008 88.444 92.0028C88.4453 91.9933 88.4467 91.984 88.448 91.9747C88.448 91.9736 88.448 91.9709 88.448 91.9695C88.4573 91.896 88.4666 91.8225 88.4773 91.748C88.5506 91.1975 88.6066 90.6523 88.6466 90.1105C88.6733 89.7428 88.692 89.3804 88.7026 89.0189C89.2146 88.9641 89.6093 88.9225 89.672 88.9225C89.6733 88.9225 89.6746 88.9225 89.6746 88.9225C90.0973 88.9387 90.5186 88.9455 90.9413 88.9455C93.4173 88.9455 95.904 88.6881 98.3146 88.1428C96.2586 90.2225 93.4853 92.2865 90.544 94.2403L88.3133 94.8455ZM63.496 91.6652C62.1773 90.2679 60.684 88.7351 59.856 87.4627C59.3573 86.7804 58.8946 86.1147 58.468 85.4652C53.82 78.3865 53.3906 73.1761 55.488 69.2496C56.372 66.9439 57.9093 65.0069 59.9013 63.5053C62.6533 61.4319 66.2746 60.1881 70.2386 59.9564C70.688 59.9308 71.1413 59.9173 71.5986 59.9173C74.3333 59.9173 77.1973 60.3908 80.0293 61.3933C85.9426 63.1627 91.3106 66.8523 95.2373 70.7772C94.3226 70.9747 93.4013 71.1548 92.4786 71.3283C85.12 63.4761 76.2093 61.6684 72.3413 61.4507C72.04 61.4335 71.7466 61.4256 71.4613 61.4256C62.4333 61.4256 61.5106 69.7856 64.2133 76.8376C65.2226 79.4736 66.312 81.6256 67.588 83.0923C65.1066 85.5241 63.8373 88.5095 63.496 91.6652ZM88.1026 83.3105C87.684 81.7772 87.048 80.4319 86.1853 79.3652C91.3826 79.2865 96.7266 79.4684 95.232 75.3736C96.4853 75.3053 97.74 75.2523 98.996 75.2001C100.524 77.3709 101.492 79.4173 101.745 81.0439C101.759 81.1283 101.769 81.2137 101.777 81.2975C98.7253 81.9616 95.532 82.2335 92.4293 82.6147C90.9973 82.7897 89.54 83.0095 88.1026 83.3105Z" fill="white"/>
</mask>
<g mask="url(#mask2_33_971)">
<path d="M88.3133 94.8455C88.2813 94.0283 88.3146 93.1548 88.4186 92.2199C88.4186 92.2189 88.4186 92.2173 88.42 92.2173C88.4213 92.2043 88.4226 92.1892 88.424 92.1761C88.424 92.1747 88.424 92.172 88.4253 92.1695C88.4266 92.1548 88.428 92.1413 88.4293 92.1283C88.4293 92.1267 88.4293 92.1256 88.4293 92.1256C88.432 92.1105 88.4333 92.096 88.4346 92.0829C88.436 92.0761 88.436 92.0709 88.4373 92.0641C88.4373 92.0575 88.4386 92.0496 88.44 92.0413C88.44 92.0351 88.4413 92.0256 88.4426 92.0189C88.4426 92.0137 88.444 92.008 88.444 92.0028C88.4453 91.9933 88.4467 91.984 88.448 91.9747C88.448 91.9736 88.448 91.9709 88.448 91.9695C88.4573 91.896 88.4666 91.8225 88.4773 91.748C88.5506 91.1975 88.6066 90.6523 88.6466 90.1105C88.6733 89.7428 88.692 89.3804 88.7026 89.0189C89.2146 88.9641 89.6093 88.9225 89.672 88.9225C89.6733 88.9225 89.6746 88.9225 89.6746 88.9225C90.0973 88.9387 90.5186 88.9455 90.9413 88.9455C93.4173 88.9455 95.904 88.6881 98.3146 88.1428C96.2586 90.2225 93.4853 92.2865 90.544 94.2403L88.3133 94.8455ZM63.496 91.6652C62.1773 90.2679 60.684 88.7351 59.856 87.4627C59.3573 86.7804 58.8946 86.1147 58.468 85.4652C53.82 78.3865 53.3906 73.1761 55.488 69.2496C56.372 66.9439 57.9093 65.0069 59.9013 63.5053C62.6533 61.4319 66.2746 60.1881 70.2386 59.9564C70.688 59.9308 71.1413 59.9173 71.5986 59.9173C74.3333 59.9173 77.1973 60.3908 80.0293 61.3933C85.9426 63.1627 91.3106 66.8523 95.2373 70.7772C94.3226 70.9747 93.4013 71.1548 92.4786 71.3283C85.12 63.4761 76.2093 61.6684 72.3413 61.4507C72.04 61.4335 71.7466 61.4256 71.4613 61.4256C62.4333 61.4256 61.5106 69.7856 64.2133 76.8376C65.2226 79.4736 66.312 81.6256 67.588 83.0923C65.1066 85.5241 63.8373 88.5095 63.496 91.6652ZM88.1026 83.3105C87.684 81.7772 87.048 80.4319 86.1853 79.3652C91.3826 79.2865 96.7266 79.4684 95.232 75.3736C96.4853 75.3053 97.74 75.2523 98.996 75.2001C100.524 77.3709 101.492 79.4173 101.745 81.0439C101.759 81.1283 101.769 81.2137 101.777 81.2975C98.7253 81.9616 95.532 82.2335 92.4293 82.6147C90.9973 82.7897 89.54 83.0095 88.1026 83.3105Z" fill="url(#paint2_linear_33_971)"/>
</g>
<path d="M78.8667 97.4028C69.8653 95.9308 61.2107 91.6652 56.28 91.6652C54.784 91.6652 49.2653 93.1616 47.8627 94.0975C44.964 96.8095 43.652 101.975 44.368 103.611C45.1107 105.308 50.7307 109.762 56.1387 109.974C60.5947 110.148 89.2893 106.131 97.0693 105.202C105.74 104.165 103.139 98.5747 99.5413 91.8043L78.8667 97.4028Z" fill="#FF5E3B"/>
<path d="M72.816 109.064C68.688 109.56 64.7533 109.999 61.1546 110.307C57.5426 110.677 54.152 110.452 51.5333 109.387C48.924 108.344 47.192 106.848 46.0866 105.797C44.9786 104.731 44.564 104.008 44.564 103.936C44.58 103.936 44.9653 104.417 46.3626 105.486C47.5546 106.395 49.292 107.779 51.7986 108.676C54.28 109.593 57.5413 109.739 61.0666 109.324C64.636 108.964 68.5666 108.496 72.688 108C80.932 107.002 88.3893 106.048 93.7853 105.34C96.48 104.977 98.68 104.751 100.099 104.316C101.545 103.911 101.989 103.1 102.069 103.176C102.089 103.189 102.021 103.403 101.748 103.719C101.483 104.038 100.972 104.428 100.239 104.709C98.7746 105.292 96.5786 105.629 93.8973 106.089C88.5213 106.989 81.0707 108.064 72.816 109.064Z" fill="#932F30"/>
<mask id="mask3_33_971" style="mask-type:luminance" maskUnits="userSpaceOnUse" x="47" y="91" width="18" height="9">
<path d="M64.4267 99.7413C54.992 99.0923 47.596 94.3471 47.8627 94.0975C49.2654 93.1616 54.7841 91.6652 56.2801 91.6652C58.5561 91.6652 60.7827 92.2471 63.4054 93.0173C63.4014 93.1709 63.4 93.3241 63.4 93.4772C63.4 95.5575 63.768 97.6804 64.4267 99.7413Z" fill="white"/>
</mask>
<g mask="url(#mask3_33_971)">
<path d="M64.4267 99.7413C54.992 99.0923 47.596 94.3471 47.8627 94.0975C49.2654 93.1616 54.7841 91.6652 56.2801 91.6652C58.5561 91.6652 60.7827 92.2471 63.4054 93.0173C63.4014 93.1709 63.4 93.3241 63.4 93.4772C63.4 95.5575 63.768 97.6804 64.4267 99.7413Z" fill="url(#paint3_linear_33_971)"/>
</g>
<mask id="mask4_33_971" style="mask-type:luminance" maskUnits="userSpaceOnUse" x="7" y="0" width="51" height="107">
<path d="M19.4973 106.508C12.2547 106.508 7.86801 102.526 7.86801 102.526C7.86801 102.526 7.62133 101.835 7.828 100.252C8 98.9318 8.48533 96.9933 9.692 94.3162C9.84266 94.0241 10.0213 93.7615 10.2227 93.5241C11.9053 91.547 15.1627 91.4137 16.7053 91.3933C17.0253 90.9626 17.34 90.5241 17.648 90.0813C23.0587 82.3027 26.8547 72.5162 29.092 63.1949C29.7107 60.6146 30.2107 58.0694 30.592 55.6121C32.3187 44.4865 31.6147 35.1694 28.5827 32.5282C27.8574 30.3855 29.604 25.2017 32.2013 19.7069C35.8827 18.2949 39.428 16.4531 42.2533 14.035C43.0333 13.3683 42.9907 12.1105 42.1173 11.5709C40.9907 10.8761 39.432 10.2678 37.6467 9.747C40.0614 5.89874 42.3773 2.92941 43.7733 2.22007C44.0467 2.08141 44.3253 1.94941 44.6093 1.82274C46.9107 1.63608 49.2267 1.42808 51.5373 1.20541C52.7813 1.08541 54.0667 0.804075 54.872 0.637409C55.2147 0.790742 55.5133 0.980079 55.7587 1.20808C55.8947 1.75075 56.0987 3.91874 57.08 6.92248C59.1574 13.2694 52.916 16.1105 52.916 16.1105L52.2053 28.1589L50.696 53.7386C50.696 53.7386 50.4974 56.6402 50.4134 60.5214C50.288 66.3162 50.4174 74.2949 51.844 78.0558C52.12 78.7829 51.828 79.8651 51.1187 81.1865C48.4587 86.1427 39.9147 94.4589 33.3467 99.9959C29.716 103.056 26.6893 105.267 25.592 105.593C23.3907 106.248 21.3507 106.508 19.4973 106.508Z" fill="white"/>
</mask>
<g mask="url(#mask4_33_971)">
<path d="M19.4973 106.508C12.2547 106.508 7.86801 102.526 7.86801 102.526C7.86801 102.526 7.62133 101.835 7.828 100.252C8 98.9318 8.48533 96.9933 9.692 94.3162C9.84266 94.0241 10.0213 93.7615 10.2227 93.5241C11.9053 91.547 15.1627 91.4137 16.7053 91.3933C17.0253 90.9626 17.34 90.5241 17.648 90.0813C23.0587 82.3027 26.8547 72.5162 29.092 63.1949C29.7107 60.6146 30.2107 58.0694 30.592 55.6121C32.3187 44.4865 31.6147 35.1694 28.5827 32.5282C27.8574 30.3855 29.604 25.2017 32.2013 19.7069C35.8827 18.2949 39.428 16.4531 42.2533 14.035C43.0333 13.3683 42.9907 12.1105 42.1173 11.5709C40.9907 10.8761 39.432 10.2678 37.6467 9.747C40.0614 5.89874 42.3773 2.92941 43.7733 2.22007C44.0467 2.08141 44.3253 1.94941 44.6093 1.82274C46.9107 1.63608 49.2267 1.42808 51.5373 1.20541C52.7813 1.08541 54.0667 0.804075 54.872 0.637409C55.2147 0.790742 55.5133 0.980079 55.7587 1.20808C55.8947 1.75075 56.0987 3.91874 57.08 6.92248C59.1574 13.2694 52.916 16.1105 52.916 16.1105L52.2053 28.1589L50.696 53.7386C50.696 53.7386 50.4974 56.6402 50.4134 60.5214C50.288 66.3162 50.4174 74.2949 51.844 78.0558C52.12 78.7829 51.828 79.8651 51.1187 81.1865C48.4587 86.1427 39.9147 94.4589 33.3467 99.9959C29.716 103.056 26.6893 105.267 25.592 105.593C23.3907 106.248 21.3507 106.508 19.4973 106.508Z" fill="url(#paint4_linear_33_971)"/>
</g>
<path d="M62.0413 13.8559C60.6893 12.8709 59.5186 11.6028 58.5946 10.0559C58.3026 20.0351 42.324 32.5668 32.7173 36.6387C42.012 34.9684 51.252 31.1709 57.676 25.6736C60.068 23.6267 63.4026 19.4865 65.168 16.4173C63.968 15.6012 62.9373 14.7428 62.0413 13.8559Z" fill="#9C3D39"/>
<path d="M85.532 72.7803C91.1107 71.3162 97.028 70.9694 102.281 68.5891C106.228 66.8017 109.629 63.8522 112.036 60.2558C112.665 59.3137 113.144 58.3454 113.581 57.3599C113.121 64.0105 111.808 69.5293 110.387 74.3173C103.981 75.2881 97.4427 75.0479 90.9907 75.6907C84.2373 76.3641 77.272 78.1891 72.312 82.8214C74.2 77.3719 79.9547 74.2427 85.532 72.7803Z" fill="#9C3D39"/>
<mask id="mask5_33_971" style="mask-type:luminance" maskUnits="userSpaceOnUse" x="62" y="61" width="34" height="23">
<path d="M67.588 83.0923C66.312 81.6256 65.2227 79.4736 64.2133 76.8376C61.5107 69.7856 62.4333 61.4256 71.4613 61.4256C71.7467 61.4256 72.04 61.4335 72.3413 61.4507C76.2093 61.6684 85.12 63.4761 92.4787 71.3283C90.152 71.7695 87.8147 72.1813 85.532 72.7804C81.8973 73.7335 78.1867 75.395 75.5213 77.9439C73.7253 78.707 71.7347 79.86 69.5427 81.4668C69.5387 81.471 69.5347 81.4736 69.5293 81.4772C69.5227 81.4814 69.516 81.4866 69.5093 81.4923C69.496 81.5018 69.4827 81.5106 69.4693 81.5215C69.468 81.5226 69.4653 81.5242 69.464 81.5256C69.3667 81.596 69.2693 81.6695 69.172 81.7428C69.1667 81.7455 69.1627 81.748 69.1587 81.7523C69.1533 81.7559 69.1467 81.7616 69.14 81.7652C69.1293 81.7736 69.1173 81.783 69.1053 81.7923C69.0627 81.8242 69.02 81.8559 68.9773 81.8892C68.4773 82.272 68.016 82.6736 67.588 83.0923ZM86.1853 79.3652C85.3466 78.3294 84.2946 77.5559 83.0173 77.1319C85.6173 76.4028 88.32 75.9575 90.9907 75.6908C92.4013 75.5507 93.816 75.4523 95.232 75.3736C96.7267 79.4684 91.3826 79.2866 86.1853 79.3652Z" fill="white"/>
</mask>
<g mask="url(#mask5_33_971)">
<path d="M67.588 83.0923C66.312 81.6256 65.2227 79.4736 64.2133 76.8376C61.5107 69.7856 62.4333 61.4256 71.4613 61.4256C71.7467 61.4256 72.04 61.4335 72.3413 61.4507C76.2093 61.6684 85.12 63.4761 92.4787 71.3283C90.152 71.7695 87.8147 72.1813 85.532 72.7804C81.8973 73.7335 78.1867 75.395 75.5213 77.9439C73.7253 78.707 71.7347 79.86 69.5427 81.4668C69.5387 81.471 69.5347 81.4736 69.5293 81.4772C69.5227 81.4814 69.516 81.4866 69.5093 81.4923C69.496 81.5018 69.4827 81.5106 69.4693 81.5215C69.468 81.5226 69.4653 81.5242 69.464 81.5256C69.3667 81.596 69.2693 81.6695 69.172 81.7428C69.1667 81.7455 69.1627 81.748 69.1587 81.7523C69.1533 81.7559 69.1467 81.7616 69.14 81.7652C69.1293 81.7736 69.1173 81.783 69.1053 81.7923C69.0627 81.8242 69.02 81.8559 68.9773 81.8892C68.4773 82.272 68.016 82.6736 67.588 83.0923ZM86.1853 79.3652C85.3466 78.3294 84.2946 77.5559 83.0173 77.1319C85.6173 76.4028 88.32 75.9575 90.9907 75.6908C92.4013 75.5507 93.816 75.4523 95.232 75.3736C96.7267 79.4684 91.3826 79.2866 86.1853 79.3652Z" fill="url(#paint5_linear_33_971)"/>
</g>
<path d="M75.5212 77.9438C78.1866 75.3949 81.8973 73.7334 85.5319 72.7804C87.8146 72.1813 90.1519 71.7694 92.4786 71.3282C92.9093 71.7881 93.3346 72.2678 93.7532 72.7694C94.4866 73.7897 94.9666 74.648 95.2319 75.3736C93.8159 75.4522 92.4012 75.5506 90.9906 75.6908C88.3199 75.9574 85.6172 76.4028 83.0172 77.1318C82.2892 76.8908 81.4879 76.7616 80.6119 76.7616C80.4813 76.7616 80.3506 76.7641 80.2159 76.7694C78.8306 76.8293 77.2692 77.2017 75.5212 77.9438Z" fill="#AD5D43"/>
<mask id="mask6_33_971" style="mask-type:luminance" maskUnits="userSpaceOnUse" x="68" y="76" width="84" height="48">
<path d="M110.061 123.941C94.9079 123.941 79.4866 119.82 70.072 109.388C69.784 109.069 69.5026 108.744 69.2266 108.415C69.1919 108.374 69.1573 108.332 69.1239 108.291C69.1239 108.291 69.1239 108.291 69.1239 108.292C78.4266 119.532 94.3813 123.936 110.053 123.936C114.361 123.936 118.651 123.604 122.772 122.988C122.649 122.988 122.529 122.989 122.408 122.989C117.861 122.989 113.316 122.503 108.867 121.559C108.143 119.115 107.841 116.647 107.881 114.159C108.957 114.232 110.043 114.28 111.132 114.302C111.407 114.307 111.679 114.309 111.951 114.309C117.32 114.309 122.108 113.275 125.923 111.909C126.26 112.529 126.54 113.204 126.764 113.932C127.643 116.798 126.523 120.1 124.66 122.688C127.868 122.136 130.952 121.407 133.855 120.538C134.252 117.171 133.421 113.631 131.843 110.538C131.663 110.186 131.445 109.844 131.197 109.514C134.895 107.392 136.271 105.368 134.248 105.368C133.484 105.368 131.436 106.077 128.035 106.815C127.62 106.575 127.185 106.353 126.737 106.156C130.803 105.319 134.153 103.992 134.861 101.938C134.993 101.555 135.033 101.145 134.968 100.709C136.619 99.1094 138.889 98.2736 141.147 98.2736C143.192 98.2736 145.225 98.96 146.776 100.384C149.669 103.041 150.381 107.809 148.812 111.441C150.112 109.759 151.068 107.897 151.501 105.892C151.508 105.871 151.515 105.851 151.521 105.829C151.515 105.859 151.509 105.889 151.503 105.917C150.115 112.271 143.5 117.191 137.22 119.44C129.379 122.248 119.776 123.941 110.061 123.941ZM100.512 119.205C97.1306 118.008 93.8466 116.538 90.7066 114.805C91.056 113.81 91.5199 112.868 92.0546 112.047C92.2919 111.681 92.544 111.335 92.8106 111.004C95.86 112.177 99.1973 113.033 102.699 113.58C101.692 115.488 100.973 117.455 100.512 119.205ZM88.2266 113.365C86.2239 112.141 84.2893 110.807 82.4346 109.367C80.8053 108.101 79.2253 106.743 77.768 105.272C78.6093 103.921 79.8013 102.802 81.1826 101.976C81.616 102.986 82.24 103.936 82.8 104.864L82.8879 105.009C84.9693 106.967 87.4773 108.604 90.2986 109.932C89.7239 110.635 89.2106 111.403 88.768 112.231C88.572 112.597 88.3906 112.977 88.2266 113.365ZM112.125 108.445C110.921 108.445 109.728 108.415 108.553 108.352C108.625 108.003 108.703 107.655 108.785 107.304C109.048 107.329 109.312 107.355 109.576 107.379C110.124 107.429 111.064 107.463 112.268 107.463C114.259 107.463 116.972 107.372 119.831 107.12C120.499 107.335 121.124 107.588 121.707 107.881C118.967 108.216 115.776 108.445 112.125 108.445ZM69.1213 108.286C69.1119 108.276 69.0999 108.262 69.0906 108.251C69.0999 108.263 69.1106 108.275 69.1199 108.286C69.1199 108.286 69.1199 108.286 69.1213 108.286ZM106.691 108.224C103.825 107.984 101.1 107.545 98.6466 106.896C99.3586 106.628 100.093 106.409 100.841 106.238C103.069 106.681 105.46 106.975 107.889 107.217C107.472 107.532 107.073 107.869 106.691 108.224ZM95.6586 105.947C92.2599 104.66 89.6466 102.859 88.308 100.497C88.9853 100.584 89.656 100.727 90.3133 100.916C91.732 102.795 93.8213 104.086 96.3226 105.008C96.6719 105.136 97.0293 105.257 97.3933 105.372C96.8026 105.522 96.2226 105.716 95.6586 105.947ZM134.668 98.3616C135.067 95.6641 138.425 93.9506 140.867 93.2933C141.832 93.0334 142.733 92.9017 143.576 92.9017C145.081 92.9017 146.397 93.3214 147.541 94.1746C146.5 93.847 145.423 93.6908 144.345 93.6908C140.708 93.6908 137.053 95.4626 134.668 98.3616ZM88.4239 92.1761C88.4239 92.1736 88.4239 92.172 88.4253 92.1694C88.4239 92.172 88.4239 92.1746 88.4239 92.1761ZM88.4773 91.748C88.5506 91.1985 88.6066 90.6506 88.6466 90.1105C88.6066 90.6522 88.5506 91.1974 88.4773 91.748ZM69.1586 81.7522C69.1626 81.748 69.1666 81.7454 69.172 81.7428C69.1706 81.7428 69.1706 81.7428 69.1706 81.7428C69.1666 81.7454 69.1626 81.7496 69.1586 81.7522ZM69.5093 81.4922C69.516 81.4865 69.5226 81.4813 69.5293 81.4772C69.5293 81.4772 69.5279 81.4772 69.5279 81.4788C69.5226 81.4829 69.516 81.4865 69.5106 81.4908C69.5106 81.4908 69.5106 81.4908 69.5093 81.4922ZM69.5426 81.4668C71.7346 79.86 73.7253 78.7069 75.5213 77.9438C77.2693 77.2017 78.8306 76.8293 80.216 76.7694C77.4173 76.8908 73.888 78.2897 69.5826 81.4386C69.5813 81.4386 69.5813 81.4386 69.5813 81.4386C69.5693 81.448 69.556 81.4574 69.544 81.4668H69.5426Z" fill="white"/>
</mask>
<g mask="url(#mask6_33_971)">
<path d="M110.061 123.941C94.9079 123.941 79.4866 119.82 70.072 109.388C69.784 109.069 69.5026 108.744 69.2266 108.415C69.1919 108.374 69.1573 108.332 69.1239 108.291C69.1239 108.291 69.1239 108.291 69.1239 108.292C78.4266 119.532 94.3813 123.936 110.053 123.936C114.361 123.936 118.651 123.604 122.772 122.988C122.649 122.988 122.529 122.989 122.408 122.989C117.861 122.989 113.316 122.503 108.867 121.559C108.143 119.115 107.841 116.647 107.881 114.159C108.957 114.232 110.043 114.28 111.132 114.302C111.407 114.307 111.679 114.309 111.951 114.309C117.32 114.309 122.108 113.275 125.923 111.909C126.26 112.529 126.54 113.204 126.764 113.932C127.643 116.798 126.523 120.1 124.66 122.688C127.868 122.136 130.952 121.407 133.855 120.538C134.252 117.171 133.421 113.631 131.843 110.538C131.663 110.186 131.445 109.844 131.197 109.514C134.895 107.392 136.271 105.368 134.248 105.368C133.484 105.368 131.436 106.077 128.035 106.815C127.62 106.575 127.185 106.353 126.737 106.156C130.803 105.319 134.153 103.992 134.861 101.938C134.993 101.555 135.033 101.145 134.968 100.709C136.619 99.1094 138.889 98.2736 141.147 98.2736C143.192 98.2736 145.225 98.96 146.776 100.384C149.669 103.041 150.381 107.809 148.812 111.441C150.112 109.759 151.068 107.897 151.501 105.892C151.508 105.871 151.515 105.851 151.521 105.829C151.515 105.859 151.509 105.889 151.503 105.917C150.115 112.271 143.5 117.191 137.22 119.44C129.379 122.248 119.776 123.941 110.061 123.941ZM100.512 119.205C97.1306 118.008 93.8466 116.538 90.7066 114.805C91.056 113.81 91.5199 112.868 92.0546 112.047C92.2919 111.681 92.544 111.335 92.8106 111.004C95.86 112.177 99.1973 113.033 102.699 113.58C101.692 115.488 100.973 117.455 100.512 119.205ZM88.2266 113.365C86.2239 112.141 84.2893 110.807 82.4346 109.367C80.8053 108.101 79.2253 106.743 77.768 105.272C78.6093 103.921 79.8013 102.802 81.1826 101.976C81.616 102.986 82.24 103.936 82.8 104.864L82.8879 105.009C84.9693 106.967 87.4773 108.604 90.2986 109.932C89.7239 110.635 89.2106 111.403 88.768 112.231C88.572 112.597 88.3906 112.977 88.2266 113.365ZM112.125 108.445C110.921 108.445 109.728 108.415 108.553 108.352C108.625 108.003 108.703 107.655 108.785 107.304C109.048 107.329 109.312 107.355 109.576 107.379C110.124 107.429 111.064 107.463 112.268 107.463C114.259 107.463 116.972 107.372 119.831 107.12C120.499 107.335 121.124 107.588 121.707 107.881C118.967 108.216 115.776 108.445 112.125 108.445ZM69.1213 108.286C69.1119 108.276 69.0999 108.262 69.0906 108.251C69.0999 108.263 69.1106 108.275 69.1199 108.286C69.1199 108.286 69.1199 108.286 69.1213 108.286ZM106.691 108.224C103.825 107.984 101.1 107.545 98.6466 106.896C99.3586 106.628 100.093 106.409 100.841 106.238C103.069 106.681 105.46 106.975 107.889 107.217C107.472 107.532 107.073 107.869 106.691 108.224ZM95.6586 105.947C92.2599 104.66 89.6466 102.859 88.308 100.497C88.9853 100.584 89.656 100.727 90.3133 100.916C91.732 102.795 93.8213 104.086 96.3226 105.008C96.6719 105.136 97.0293 105.257 97.3933 105.372C96.8026 105.522 96.2226 105.716 95.6586 105.947ZM134.668 98.3616C135.067 95.6641 138.425 93.9506 140.867 93.2933C141.832 93.0334 142.733 92.9017 143.576 92.9017C145.081 92.9017 146.397 93.3214 147.541 94.1746C146.5 93.847 145.423 93.6908 144.345 93.6908C140.708 93.6908 137.053 95.4626 134.668 98.3616ZM88.4239 92.1761C88.4239 92.1736 88.4239 92.172 88.4253 92.1694C88.4239 92.172 88.4239 92.1746 88.4239 92.1761ZM88.4773 91.748C88.5506 91.1985 88.6066 90.6506 88.6466 90.1105C88.6066 90.6522 88.5506 91.1974 88.4773 91.748ZM69.1586 81.7522C69.1626 81.748 69.1666 81.7454 69.172 81.7428C69.1706 81.7428 69.1706 81.7428 69.1706 81.7428C69.1666 81.7454 69.1626 81.7496 69.1586 81.7522ZM69.5093 81.4922C69.516 81.4865 69.5226 81.4813 69.5293 81.4772C69.5293 81.4772 69.5279 81.4772 69.5279 81.4788C69.5226 81.4829 69.516 81.4865 69.5106 81.4908C69.5106 81.4908 69.5106 81.4908 69.5093 81.4922ZM69.5426 81.4668C71.7346 79.86 73.7253 78.7069 75.5213 77.9438C77.2693 77.2017 78.8306 76.8293 80.216 76.7694C77.4173 76.8908 73.888 78.2897 69.5826 81.4386C69.5813 81.4386 69.5813 81.4386 69.5813 81.4386C69.5693 81.448 69.556 81.4574 69.544 81.4668H69.5426Z" fill="url(#paint6_radial_33_971)"/>
</g>
<path d="M80.2386 86.2616C83.7626 84.0361 88.2053 83.1318 92.4293 82.6146C98.08 81.9214 104.029 81.5856 108.877 78.6012L109.105 78.4376C108.6 80.0069 108.109 81.5001 107.671 82.9334C107.547 83.3173 107.125 84.3318 106.973 84.6198C101.884 87.8413 95.7026 89.1361 89.6746 88.9225C89.6 88.9198 88.6933 89.0189 87.7853 89.1173C86.8746 89.2162 85.9613 89.3146 85.8853 89.3121L86.2893 86.6813C86.2893 86.6813 86.1826 86.6616 80.2386 86.2616Z" fill="#9C3D39"/>
<path d="M69.1053 81.7923C84.2707 70.396 89.9987 80.3788 88.4773 91.748C87.9333 95.8053 88.68 98.7507 90.3186 100.917C89.0386 100.55 87.7147 100.356 86.3787 100.412C82.42 100.579 78.5093 103.002 77.0546 106.688C75.6 110.374 77.044 115.115 80.544 116.972L80.228 117.241C75.94 114.919 72.124 111.941 69.0506 108.202C62.816 100.615 60.2973 88.4105 69.1053 81.7923Z" fill="#FFD09C"/>
<path d="M130.939 97.8018C128.871 93.5256 129.964 88.1043 133.113 84.619C136.916 85.5267 140.632 86.9163 143.805 88.9986C141.859 88.6814 139.768 88.9043 137.973 89.5882C134.46 90.9267 131.721 94.1256 130.939 97.8018Z" fill="#9C3D39"/>
<path d="M111.423 90.895C110.328 88.3857 110.309 85.3226 111.18 82.7029C112.883 82.6319 114.979 82.5975 117.329 82.6601C115.005 85.519 115.107 92.2762 116.456 96.6439C114.437 95.2029 112.509 93.3866 111.423 90.895Z" fill="#9C3D39"/>
<path d="M134.284 101.464C133.944 101.203 133.557 100.96 133.139 100.732C135.763 95.3652 142.297 92.3761 147.783 94.2532C148.597 94.5318 149.365 94.9214 150.089 95.3865C150.567 96.1746 151.005 97.0017 151.373 97.8907C152.476 100.559 152.295 103.414 151.501 105.892C151.068 107.897 150.112 109.759 148.812 111.441C150.381 107.809 149.669 103.041 146.776 100.384C143.263 97.1574 137.269 97.7214 134.284 101.464Z" fill="#9C3D39"/>
<path d="M126.764 113.932C125.705 110.484 123.371 108.259 119.831 107.12C122.139 106.916 124.543 106.607 126.737 106.155C128.993 107.155 130.912 108.717 131.843 110.538C133.421 113.631 134.252 117.171 133.855 120.538C130.952 121.407 127.868 122.136 124.66 122.688C126.523 120.1 127.643 116.799 126.764 113.932Z" fill="#9C3D39"/>
<path d="M109.708 123.932C106.419 123.917 103.121 123.708 99.8746 123.281C99.904 119.717 102.264 111.457 107.891 107.217C108.189 107.247 108.487 107.276 108.785 107.304C107.448 112.945 107.457 118.503 109.708 123.932Z" fill="#9C3D39"/>
<mask id="mask7_33_971" style="mask-type:luminance" maskUnits="userSpaceOnUse" x="9" y="91" width="18" height="8">
<path d="M9.82793 94.384C12.2279 90.9908 15.1559 91.3985 16.6373 91.3922C20.8586 92.3949 25.7333 94.7413 26.8719 97.7788C22.4053 100.129 9.37993 95.0173 9.82793 94.384Z" fill="white"/>
</mask>
<g mask="url(#mask7_33_971)">
<path d="M9.82793 94.384C12.2279 90.9908 15.1559 91.3985 16.6373 91.3922C20.8586 92.3949 25.7333 94.7413 26.8719 97.7788C22.4053 100.129 9.37993 95.0173 9.82793 94.384Z" fill="url(#paint7_linear_33_971)"/>
</g>
<mask id="mask8_33_971" style="mask-type:luminance" maskUnits="userSpaceOnUse" x="69" y="81" width="1" height="1">
<path d="M69.14 81.7653C69.1467 81.7617 69.1533 81.7559 69.1587 81.7523C69.152 81.7559 69.1467 81.7601 69.14 81.7653ZM69.172 81.7429C69.2693 81.6695 69.3667 81.5961 69.464 81.5257C69.4293 81.5507 69.396 81.5747 69.3627 81.6002C69.356 81.6043 69.3494 81.6095 69.3427 81.6147C69.3094 81.6387 69.2774 81.6627 69.244 81.6882C69.232 81.6975 69.22 81.707 69.208 81.7147C69.196 81.7242 69.184 81.7335 69.172 81.7429Z" fill="white"/>
</mask>
<g mask="url(#mask8_33_971)">
<path d="M69.14 81.7653C69.1467 81.7617 69.1533 81.7559 69.1587 81.7523C69.152 81.7559 69.1467 81.7601 69.14 81.7653ZM69.172 81.7429C69.2693 81.6695 69.3667 81.5961 69.464 81.5257C69.4293 81.5507 69.396 81.5747 69.3627 81.6002C69.356 81.6043 69.3494 81.6095 69.3427 81.6147C69.3094 81.6387 69.2774 81.6627 69.244 81.6882C69.232 81.6975 69.22 81.707 69.208 81.7147C69.196 81.7242 69.184 81.7335 69.172 81.7429Z" fill="url(#paint8_linear_33_971)"/>
</g>
<mask id="mask9_33_971" style="mask-type:luminance" maskUnits="userSpaceOnUse" x="69" y="81" width="54" height="43">
<path d="M110.053 123.936C94.3813 123.936 78.4267 119.532 69.124 108.292C72.1853 111.989 75.9747 114.938 80.228 117.241L80.544 116.972C77.044 115.115 75.6 110.374 77.0547 106.688C77.2507 106.192 77.4907 105.72 77.768 105.272C79.2253 106.743 80.8053 108.101 82.4347 109.367C84.2893 110.807 86.224 112.141 88.2267 113.365C87.3027 115.551 86.9027 118.024 87.2093 120.329C88.2907 120.711 89.392 121.052 90.508 121.369C89.7307 119.379 89.9493 116.965 90.7067 114.805C93.8467 116.538 97.1307 118.008 100.512 119.205C100.088 120.817 99.884 122.247 99.8747 123.281C103.121 123.708 106.419 123.917 109.708 123.932C109.381 123.144 109.101 122.352 108.867 121.559C113.316 122.503 117.861 122.989 122.408 122.989C122.529 122.989 122.649 122.988 122.772 122.988C118.651 123.604 114.361 123.936 110.053 123.936ZM69.12 108.286C69.1107 108.275 69.1 108.263 69.0907 108.251C69.1 108.263 69.1093 108.275 69.12 108.286ZM69.084 108.243C69.0733 108.229 69.0613 108.215 69.0507 108.202C69.0613 108.215 69.072 108.229 69.084 108.243ZM69.14 81.7652C69.1467 81.76 69.152 81.7559 69.1587 81.7523C69.152 81.7559 69.1467 81.7616 69.14 81.7652ZM69.1707 81.7428C69.1707 81.7428 69.1707 81.7428 69.172 81.7428C69.184 81.7335 69.196 81.7242 69.208 81.7147C69.1947 81.7256 69.1827 81.7335 69.1707 81.7428ZM69.3627 81.6002C69.396 81.5747 69.4293 81.5507 69.464 81.5256C69.4653 81.5242 69.468 81.5226 69.4693 81.5215C69.4827 81.5106 69.496 81.5018 69.5094 81.4923C69.5107 81.4908 69.5107 81.4908 69.5107 81.4908C69.4614 81.5267 69.412 81.5627 69.3627 81.6002ZM69.528 81.4788C69.528 81.4772 69.5293 81.4772 69.5293 81.4772C69.5347 81.4736 69.5387 81.471 69.5427 81.4668H69.544C69.5387 81.471 69.5333 81.4747 69.528 81.4788Z" fill="white"/>
</mask>
<g mask="url(#mask9_33_971)">
<path d="M110.053 123.936C94.3813 123.936 78.4267 119.532 69.124 108.292C72.1853 111.989 75.9747 114.938 80.228 117.241L80.544 116.972C77.044 115.115 75.6 110.374 77.0547 106.688C77.2507 106.192 77.4907 105.72 77.768 105.272C79.2253 106.743 80.8053 108.101 82.4347 109.367C84.2893 110.807 86.224 112.141 88.2267 113.365C87.3027 115.551 86.9027 118.024 87.2093 120.329C88.2907 120.711 89.392 121.052 90.508 121.369C89.7307 119.379 89.9493 116.965 90.7067 114.805C93.8467 116.538 97.1307 118.008 100.512 119.205C100.088 120.817 99.884 122.247 99.8747 123.281C103.121 123.708 106.419 123.917 109.708 123.932C109.381 123.144 109.101 122.352 108.867 121.559C113.316 122.503 117.861 122.989 122.408 122.989C122.529 122.989 122.649 122.988 122.772 122.988C118.651 123.604 114.361 123.936 110.053 123.936ZM69.12 108.286C69.1107 108.275 69.1 108.263 69.0907 108.251C69.1 108.263 69.1093 108.275 69.12 108.286ZM69.084 108.243C69.0733 108.229 69.0613 108.215 69.0507 108.202C69.0613 108.215 69.072 108.229 69.084 108.243ZM69.14 81.7652C69.1467 81.76 69.152 81.7559 69.1587 81.7523C69.152 81.7559 69.1467 81.7616 69.14 81.7652ZM69.1707 81.7428C69.1707 81.7428 69.1707 81.7428 69.172 81.7428C69.184 81.7335 69.196 81.7242 69.208 81.7147C69.1947 81.7256 69.1827 81.7335 69.1707 81.7428ZM69.3627 81.6002C69.396 81.5747 69.4293 81.5507 69.464 81.5256C69.4653 81.5242 69.468 81.5226 69.4693 81.5215C69.4827 81.5106 69.496 81.5018 69.5094 81.4923C69.5107 81.4908 69.5107 81.4908 69.5107 81.4908C69.4614 81.5267 69.412 81.5627 69.3627 81.6002ZM69.528 81.4788C69.528 81.4772 69.5293 81.4772 69.5293 81.4772C69.5347 81.4736 69.5387 81.471 69.5427 81.4668H69.544C69.5387 81.471 69.5333 81.4747 69.528 81.4788Z" fill="url(#paint9_radial_33_971)"/>
</g>
<path d="M80.2279 117.241C75.9746 114.938 72.1852 111.989 69.1239 108.292C69.1226 108.29 69.1212 108.288 69.1199 108.286C69.1092 108.275 69.0999 108.263 69.0906 108.251C69.0879 108.248 69.0866 108.245 69.0839 108.243C69.0719 108.229 69.0612 108.215 69.0506 108.202C65.6826 104.104 63.3999 98.66 63.3999 93.4772C63.3986 89.0616 65.0546 84.8361 69.1052 81.7923C69.1172 81.7829 69.1292 81.7747 69.1399 81.7652C69.1466 81.7616 69.1519 81.7559 69.1586 81.7523C69.1626 81.7496 69.1666 81.7455 69.1706 81.7428C69.1826 81.7335 69.1946 81.7256 69.2079 81.7147C69.2199 81.7069 69.2319 81.6975 69.2439 81.6881C69.2772 81.6627 69.3092 81.6387 69.3426 81.6147C69.3492 81.6095 69.3559 81.6043 69.3626 81.6001C69.4119 81.5627 69.4612 81.5267 69.5106 81.4908C69.5159 81.4865 69.5226 81.4829 69.5279 81.4788C69.5332 81.4747 69.5386 81.4709 69.5439 81.4668C69.5559 81.4575 69.5679 81.448 69.5813 81.4387C69.5813 81.4387 69.5813 81.4387 69.5826 81.4387C71.2573 80.2137 72.8119 79.2575 74.2546 78.5351C73.3919 79.3496 72.6359 80.2761 72.0466 81.2985C69.3252 86.0256 69.6532 92.0856 71.9079 97.0507C73.3106 100.14 75.3732 102.856 77.7679 105.272C77.4906 105.72 77.2506 106.192 77.0546 106.688C75.5999 110.374 77.0439 115.115 80.5439 116.972L80.2279 117.241Z" fill="#F4B07D"/>
<path d="M109.708 123.932C106.419 123.917 103.121 123.708 99.8746 123.281C99.884 122.247 100.088 120.817 100.512 119.205C103.241 120.171 106.035 120.957 108.867 121.559C109.101 122.352 109.381 123.144 109.708 123.932Z" fill="#95342E"/>
<path d="M23.824 78.6471C31.2133 76.6376 38.2547 86.0387 39.0867 94.984C38.1707 95.8439 37.2547 96.683 36.3494 97.4908C35.484 91.9507 25.0307 79.7652 20.5853 85.3403C21.784 83.1856 22.8587 80.9414 23.824 78.6471Z" fill="#9C3D39"/>
<path d="M16.1946 106.488C13.6092 106.175 11.3239 105.351 9.87323 104.423C8.40123 103.511 7.77189 102.591 7.86789 102.526C7.94789 102.456 8.68121 103.186 10.1532 103.928C11.6092 104.689 13.7919 105.386 16.2999 105.692C18.8132 106.029 21.1092 106.091 22.7572 105.955C24.4079 105.832 25.3972 105.534 25.4386 105.643C25.4826 105.739 24.5212 106.244 22.8266 106.519C21.1386 106.807 18.7612 106.834 16.1946 106.488Z" fill="#932F30"/>
<path d="M108.904 124.368C101.885 124.109 95.6173 122.879 91.2013 121.65C88.9893 121.036 87.2319 120.428 86.0386 119.957C84.8439 119.487 84.2119 119.155 84.2386 119.092C84.2639 119.029 84.9386 119.239 86.1626 119.595C87.3866 119.951 89.1599 120.453 91.3746 120.975C95.7973 122.023 102.011 123.129 108.94 123.384C115.857 123.6 122.119 122.679 126.596 121.905C128.837 121.509 130.644 121.132 131.893 120.872C133.143 120.614 133.836 120.472 133.855 120.538C133.875 120.601 133.215 120.868 131.988 121.243C130.763 121.617 128.971 122.101 126.729 122.588C122.256 123.541 115.948 124.587 108.904 124.368Z" fill="#932F30"/>
<path d="M87.2093 120.329C86.848 117.615 87.4666 114.665 88.7679 112.231C90.6439 108.719 93.8026 106.291 97.3946 105.372C98.4853 105.715 99.644 105.996 100.848 106.236C97.3266 107.046 94.1146 108.877 92.0546 112.047C90.3626 114.65 89.372 118.462 90.508 121.37C89.392 121.052 88.2906 120.711 87.2093 120.329Z" fill="#9C3D39"/>
<mask id="mask10_33_971" style="mask-type:luminance" maskUnits="userSpaceOnUse" x="81" y="100" width="45" height="15">
<path d="M111.951 114.309C111.679 114.309 111.407 114.307 111.132 114.302C110.043 114.28 108.957 114.232 107.881 114.159C107.913 112.235 108.149 110.299 108.553 108.352C109.728 108.415 110.921 108.445 112.125 108.445C115.776 108.445 118.967 108.216 121.707 107.881C123.556 108.815 124.967 110.147 125.923 111.909C122.108 113.275 117.32 114.309 111.951 114.309ZM102.699 113.58C99.1973 113.033 95.8599 112.177 92.8106 111.004C94.3653 109.08 96.3959 107.741 98.6466 106.896C101.1 107.545 103.825 107.984 106.691 108.224C105.043 109.759 103.721 111.64 102.699 113.58ZM90.2986 109.932C87.4773 108.604 84.9693 106.967 82.8879 105.009L82.7999 104.864C82.2399 103.936 81.616 102.987 81.1826 101.976C82.7493 101.043 84.5586 100.489 86.3786 100.412C86.5319 100.405 86.6853 100.403 86.8386 100.403C87.3306 100.403 87.8213 100.435 88.3079 100.497C89.6466 102.859 92.2599 104.66 95.6586 105.947C93.6053 106.79 91.7573 108.148 90.2986 109.932Z" fill="white"/>
</mask>
<g mask="url(#mask10_33_971)">
<path d="M111.951 114.309C111.679 114.309 111.407 114.307 111.132 114.302C110.043 114.28 108.957 114.232 107.881 114.159C107.913 112.235 108.149 110.299 108.553 108.352C109.728 108.415 110.921 108.445 112.125 108.445C115.776 108.445 118.967 108.216 121.707 107.881C123.556 108.815 124.967 110.147 125.923 111.909C122.108 113.275 117.32 114.309 111.951 114.309ZM102.699 113.58C99.1973 113.033 95.8599 112.177 92.8106 111.004C94.3653 109.08 96.3959 107.741 98.6466 106.896C101.1 107.545 103.825 107.984 106.691 108.224C105.043 109.759 103.721 111.64 102.699 113.58ZM90.2986 109.932C87.4773 108.604 84.9693 106.967 82.8879 105.009L82.7999 104.864C82.2399 103.936 81.616 102.987 81.1826 101.976C82.7493 101.043 84.5586 100.489 86.3786 100.412C86.5319 100.405 86.6853 100.403 86.8386 100.403C87.3306 100.403 87.8213 100.435 88.3079 100.497C89.6466 102.859 92.2599 104.66 95.6586 105.947C93.6053 106.79 91.7573 108.148 90.2986 109.932Z" fill="url(#paint10_radial_33_971)"/>
</g>
<path d="M81.1827 101.976C80.8214 101.132 80.592 100.244 80.6454 99.2923C80.7094 98.1309 81.176 97.4471 81.8627 97.0923C82.008 97.1013 82.1534 97.1054 82.296 97.1054C82.9214 97.1054 83.5254 97.019 84.1054 96.8497C85.2107 97.007 86.4027 97.4507 87.4187 97.9789C87.5653 98.8805 87.868 99.719 88.308 100.498C87.8214 100.435 87.3307 100.403 86.8387 100.403C86.6854 100.403 86.532 100.405 86.3787 100.412C84.5587 100.489 82.7494 101.043 81.1827 101.976Z" fill="#FFDCAB"/>
<mask id="mask11_33_971" style="mask-type:luminance" maskUnits="userSpaceOnUse" x="128" y="105" width="8" height="5">
<path d="M131.197 109.514C130.413 108.474 129.311 107.551 128.035 106.815C131.436 106.077 133.484 105.368 134.248 105.368C136.271 105.368 134.895 107.392 131.197 109.514Z" fill="white"/>
</mask>
<g mask="url(#mask11_33_971)">
<path d="M131.197 109.514C130.413 108.474 129.311 107.551 128.035 106.815C131.436 106.077 133.484 105.368 134.248 105.368C136.271 105.368 134.895 107.392 131.197 109.514Z" fill="url(#paint11_radial_33_971)"/>
</g>
<path d="M125.923 111.91C124.967 110.147 123.556 108.815 121.707 107.881C124.18 107.58 126.287 107.193 128.035 106.815C129.311 107.551 130.413 108.474 131.197 109.514C129.765 110.335 127.987 111.171 125.923 111.91Z" fill="#B77056"/>
<path d="M107.881 114.159C106.125 114.038 104.393 113.844 102.699 113.58C103.721 111.64 105.043 109.759 106.691 108.224C107.305 108.276 107.927 108.319 108.553 108.352C108.149 110.299 107.913 112.235 107.881 114.159Z" fill="#B77056"/>
<path d="M92.8106 111.004C91.9493 110.672 91.1106 110.315 90.2986 109.932C91.7573 108.148 93.6052 106.79 95.6586 105.947C96.5972 106.303 97.5973 106.619 98.6466 106.896C96.3959 107.741 94.3653 109.08 92.8106 111.004Z" fill="#B77056"/>
<path d="M82.18 94.16C79.4653 94.16 76.84 92.1856 76 89.496C75.612 82.6147 78.5213 78.995 81.6453 78.995C83.7333 78.995 87.3973 80.4294 87.232 91.007C86.7013 91.9376 86.004 92.759 85.052 93.3428C84.136 93.907 83.152 94.16 82.18 94.16Z" fill="#FFE4AA"/>
<path d="M49.4813 59.8522C49.3426 66.0881 50.3306 71.0641 50.5959 71.0189C50.9159 70.9803 50.4146 66.0027 50.5519 59.8761C50.6413 53.7427 51.5959 48.8479 51.3013 48.7771C51.0239 48.6907 49.5733 53.6042 49.4813 59.8522Z" fill="#932F30"/>
<path d="M99.424 43.4804C103.451 40.2668 107.409 36.7335 108.876 32.0428C110.492 34.8856 111.751 38.071 112.584 41.5762C110.852 46.372 104.9 49.9747 99.3014 51.8147C93.2347 53.808 87.2867 55.1138 82.892 57.2095C82.4494 57.419 82.0174 56.8892 82.3294 56.5138C86.38 51.6267 94.6254 47.3106 99.424 43.4804Z" fill="#9C3D39"/>
<path d="M75.1959 37.5335C76.9199 32.1762 78.8599 26.884 81.7226 22.0559C82.8973 20.0762 84.2199 18.1892 85.5853 16.3362C89.2333 16.8627 92.6799 17.9387 95.8293 19.5351C94.3586 22.0376 90.6413 24.6002 88.9319 26.0351C84.9186 29.4043 79.1626 33.1559 75.8626 37.8923C74.9639 39.1804 74.7186 39.0163 75.1959 37.5335Z" fill="#9C3D39"/>
<path d="M28.5213 63.6043C32.5426 63.7908 36.448 65.5001 39.5773 68.06C43.0706 70.9173 45.66 74.7575 47.5786 78.8439C43.428 73.8496 36.5186 72.2293 30.068 71.484C28.8093 71.3387 27.5639 71.2679 26.3893 71.6267C27.2319 68.9532 27.9426 66.2616 28.5213 63.6043Z" fill="#9C3D39"/>
<path d="M51.7586 47.5558C45.8266 50.4001 38.4987 50.4881 33.1013 46.6105C34.5667 47.6641 41.7493 44.4121 43.376 43.8001C47.0293 42.4282 50.56 40.6839 53.9107 38.6105C60.58 34.4855 66.0186 29.0949 71.088 22.9641C68.1266 33.2522 61.1053 43.0771 51.7586 47.5558Z" fill="#9C3D39"/>
<path d="M134.553 101.688C131.179 98.8053 123.089 97.9225 114.947 97.9225C110.599 97.9225 106.235 98.1736 102.564 98.5069V98.5053C106.241 98.1709 110.619 97.9189 114.98 97.9189C122.132 97.9189 129.24 98.5985 133.147 100.715C133.144 100.721 133.141 100.727 133.139 100.732C133.557 100.96 133.944 101.203 134.284 101.464C134.288 101.46 134.291 101.455 134.295 101.451C134.385 101.52 134.473 101.591 134.557 101.663C134.556 101.672 134.555 101.68 134.553 101.688Z" fill="#D2B6A7"/>
<path d="M134.557 101.663C134.473 101.591 134.385 101.52 134.295 101.451C134.407 101.312 134.521 101.177 134.641 101.047C134.624 101.265 134.596 101.472 134.557 101.663ZM133.147 100.715C129.24 98.5986 122.132 97.919 114.98 97.919C110.619 97.919 106.241 98.171 102.564 98.5054C102.561 98.5002 102.559 98.495 102.557 98.4909C102.232 97.3439 101.703 96.0923 101.061 94.7669C103.911 89.3737 106.231 86.8387 106.231 86.8387C106.231 86.8387 107.452 86.7283 109.4 86.7283C109.763 86.7283 110.152 86.7319 110.563 86.7414C110.584 88.1814 110.863 89.6106 111.423 90.895C112.509 93.3866 114.437 95.2029 116.456 96.6439C115.605 93.8909 115.251 90.1866 115.687 87.1095C117.591 87.3471 119.635 87.719 121.668 88.2934C125.287 89.3163 127.961 90.7002 129.911 92.2122C129.779 94.1267 130.096 96.0601 130.939 97.8018C131.188 96.6267 131.639 95.5002 132.251 94.4685C133.433 95.9106 134.101 97.3695 134.421 98.671C133.933 99.3043 133.504 99.9882 133.147 100.715Z" fill="#D24A24"/>
<path d="M102.557 98.4908C101.955 97.184 101.131 95.6668 100.956 94.9668C100.992 94.9002 101.027 94.8335 101.061 94.7668C101.703 96.0923 102.232 97.3439 102.557 98.4908Z" fill="#D24327"/>
<path d="M130.939 97.8018C130.096 96.06 129.779 94.1267 129.911 92.2122C130.851 92.9428 131.623 93.7028 132.251 94.4684C131.639 95.5002 131.188 96.6267 130.939 97.8018Z" fill="#802B25"/>
<path d="M116.456 96.6439C114.437 95.2029 112.509 93.3866 111.423 90.895C110.863 89.6106 110.584 88.1814 110.563 86.7414C112.035 86.7747 113.792 86.8747 115.687 87.1095C115.251 90.1866 115.605 93.8909 116.456 96.6439Z" fill="#802B25"/>
<path d="M134.284 101.464C133.944 101.203 133.557 100.96 133.139 100.732C133.141 100.727 133.144 100.721 133.147 100.715C133.504 99.9881 133.933 99.3042 134.421 98.6709C134.637 99.5532 134.695 100.363 134.641 101.047C134.521 101.177 134.407 101.312 134.295 101.451C134.291 101.455 134.288 101.46 134.284 101.464Z" fill="#802B25"/>
<path d="M108.663 50.7653C108.133 50.7653 107.356 49.8814 106.405 48.4773C107.723 47.6257 108.929 46.671 109.943 45.6231C109.992 47.559 109.743 49.1882 109.133 50.407C109.011 50.6507 108.853 50.7653 108.663 50.7653ZM102.052 41.2975C100.115 38.0507 97.9946 34.6773 95.9466 32.4481C93.596 29.8866 91.0773 28.0163 88.38 26.4923C88.5666 26.3387 88.7506 26.1866 88.9319 26.0351C90.3493 24.8439 93.1479 22.8789 94.9013 20.8163C96.9893 21.7267 98.9533 22.8737 100.705 24.3507C103.94 27.0789 106.217 30.771 107.697 34.759C106.327 37.2138 104.289 39.3387 102.052 41.2975ZM81.0959 23.1455C80.0426 22.7319 78.9666 22.3267 77.8666 21.9122C70.9973 19.3283 76.8733 17.5961 81.5039 17.5961C82.3333 17.5961 83.1253 17.6523 83.7946 17.7679C84.0173 17.807 84.2386 17.8471 84.4613 17.8866C83.4973 19.2429 82.5719 20.6242 81.7226 22.0559C81.5093 22.4163 81.2999 22.7805 81.0959 23.1455Z" fill="#FE9639"/>
<path d="M106.405 48.4772C105.188 46.6813 103.685 44.035 102.052 41.2974C104.289 39.3386 106.327 37.2137 107.697 34.7589C108.113 35.8772 108.465 37.0189 108.759 38.1684C109.465 40.9345 109.889 43.4684 109.943 45.623C108.929 46.6709 107.723 47.6256 106.405 48.4772Z" fill="#AE5F44"/>
<path d="M88.38 26.4923C86.084 25.196 83.6586 24.1507 81.0959 23.1455C81.2999 22.7804 81.5093 22.4163 81.7226 22.0559C82.5719 20.6242 83.4973 19.2428 84.4613 17.8866C88.0199 18.5294 91.6146 19.3814 94.9013 20.8163C93.148 22.8788 90.3493 24.8439 88.9319 26.0351C88.7506 26.1866 88.5666 26.3387 88.38 26.4923Z" fill="#AE5F44"/>
<path d="M5.41592 22.9438C5.42925 22.8001 5.43722 22.6574 5.45322 22.5146C5.51856 21.884 5.61189 21.26 5.71989 20.6413L5.75456 20.3974L5.76657 20.384C6.12124 18.4709 6.69989 16.6198 7.65189 14.896C7.73589 14.8761 7.81991 14.8575 7.90524 14.8413C6.46657 17.3455 5.75458 20.1001 5.41592 22.9438ZM4.53857 16.308C5.62657 14.1308 7.03991 12.108 8.70791 10.3017C7.06258 12.1256 5.65324 14.1439 4.53857 16.308Z" fill="white"/>
<path d="M5.25601 29.384C5.23067 28.0403 5.22669 26.683 5.27069 25.3308L5.26935 25.3319L5.27202 25.272C5.28135 24.984 5.29603 24.6975 5.31203 24.4106C5.33603 23.9319 5.3707 23.4564 5.41336 22.9814C5.4147 22.9684 5.4147 22.9564 5.41603 22.9439C5.7547 20.1002 6.46669 17.3455 7.90535 14.8414C7.82002 14.8575 7.736 14.8762 7.652 14.896C7.692 14.8226 7.73202 14.7507 7.77336 14.6788C6.35736 14.9523 5.06269 15.772 4.24536 16.9147C4.34003 16.7122 4.43869 16.5095 4.53869 16.308C5.65335 14.1439 7.06269 12.1256 8.70802 10.3018C8.73736 10.2695 8.76534 10.2387 8.79468 10.208C12.264 8.56163 16.0427 7.43083 19.8267 7.3387C20.064 7.3283 20.332 7.32257 20.6267 7.32257C24.268 7.32257 32.0614 8.11376 37.6467 9.7471C35.7627 12.7496 33.8173 16.2882 32.2013 19.707C22.5654 23.4002 12.0027 24.1376 11.0134 24.5199L10.8667 24.6308L10.848 24.6439C10.1654 25.2351 9.65202 26.1012 9.73468 27.0002C8.91202 26.3199 8.06 25.5747 7.452 24.7122C7.26667 24.9548 7.08935 25.2043 6.92935 25.4652C6.30401 26.4923 5.804 27.5975 5.45467 28.748C5.412 28.8923 5.33734 29.1199 5.25601 29.384Z" fill="#FFE4AA"/>
<mask id="mask12_33_971" style="mask-type:luminance" maskUnits="userSpaceOnUse" x="32" y="9" width="11" height="11">
<path d="M32.2013 19.7069C33.8173 16.2881 35.7626 12.7496 37.6466 9.74704C39.432 10.2678 40.9906 10.8761 42.1173 11.5709C42.9906 12.1105 43.0333 13.3684 42.2533 14.035C39.4279 16.4532 35.8826 18.2949 32.2013 19.7069Z" fill="white"/>
</mask>
<g mask="url(#mask12_33_971)">
<path d="M32.2013 19.7069C33.8173 16.2881 35.7626 12.7496 37.6466 9.74704C39.432 10.2678 40.9906 10.8761 42.1173 11.5709C42.9906 12.1105 43.0333 13.3684 42.2533 14.035C39.4279 16.4532 35.8826 18.2949 32.2013 19.7069Z" fill="url(#paint12_linear_33_971)"/>
</g>
<path d="M17.7027 96.2986C17.5561 96.348 15.1121 98.9866 15.0147 99.8174C14.8654 101.091 15.6987 104.851 15.6987 104.851C15.6987 104.851 15.8947 101.235 16.1387 100.648C16.3947 100.035 17.7027 96.2986 17.7027 96.2986Z" fill="#932F30"/>
<path d="M12.3973 94.5652C12.3973 94.5652 10.3239 96.6414 9.98128 97.5215C9.63995 98.4002 10.4146 101.835 10.4146 101.835C10.4146 101.835 11.0079 98.5471 11.3013 97.5215C11.5946 96.495 12.3973 94.5652 12.3973 94.5652Z" fill="#932F30"/>
<path d="M55.8813 97.4683C55.58 97.6079 52.6226 99.8189 52.1573 101.308C51.8786 102.202 52.6933 107.908 52.7506 108.1C52.8093 108.292 52.8013 102.636 53.376 101.724C54.928 99.2599 56.184 97.3282 55.8813 97.4683Z" fill="#932F30"/>
<path d="M51.1106 94.8375C51.1106 94.8375 47.9679 97.0495 47.4319 99.3293C47.2226 100.377 47.2932 105.219 47.2932 105.219C47.2932 105.219 46.2212 101.332 46.5946 98.4694C46.7346 97.6531 48.3866 96.1881 49.3639 95.5589C50.3426 94.9307 51.1106 94.8375 51.1106 94.8375Z" fill="#932F30"/>
<defs>
<linearGradient id="paint0_linear_33_971" x1="50.8336" y1="80.7601" x2="11.5432" y2="79.2293" gradientUnits="userSpaceOnUse">
<stop stop-color="#FFD4AC"/>
<stop offset="0.00096858" stop-color="#FFD4AC"/>
<stop offset="0.382214" stop-color="#FFD4AC"/>
<stop offset="0.994923" stop-color="#FFC0B3"/>
<stop offset="0.99687" stop-color="#FFC0B3"/>
<stop offset="1" stop-color="#FFC0B3"/>
</linearGradient>
<linearGradient id="paint1_linear_33_971" x1="50.8333" y1="80.76" x2="11.5431" y2="79.2293" gradientUnits="userSpaceOnUse">
<stop stop-color="#BD552D"/>
<stop offset="0.00096858" stop-color="#BD552D"/>
<stop offset="0.382214" stop-color="#BD552D"/>
<stop offset="0.994923" stop-color="#BD4134"/>
<stop offset="0.99687" stop-color="#BD4134"/>
<stop offset="1" stop-color="#BD4134"/>
</linearGradient>
<linearGradient id="paint2_linear_33_971" x1="66.7413" y1="67.8948" x2="90.0694" y2="93.3437" gradientUnits="userSpaceOnUse">
<stop stop-color="#FE7E2F"/>
<stop offset="0.054222" stop-color="#FE7E2F"/>
<stop offset="0.994923" stop-color="#FF5E3B"/>
<stop offset="0.99687" stop-color="#FF5E3B"/>
<stop offset="1" stop-color="#FF5E3B"/>
</linearGradient>
<linearGradient id="paint3_linear_33_971" x1="52.6054" y1="104.244" x2="62.2547" y2="94.1707" gradientUnits="userSpaceOnUse">
<stop stop-color="#FE9128"/>
<stop offset="0.00096858" stop-color="#FE9128"/>
<stop offset="0.382214" stop-color="#FE9128"/>
<stop offset="0.994923" stop-color="#FF5E3B"/>
<stop offset="0.99687" stop-color="#FF5E3B"/>
<stop offset="1" stop-color="#FF5E3B"/>
</linearGradient>
<linearGradient id="paint4_linear_33_971" x1="87.8827" y1="-5.0866" x2="43.7452" y2="46.1386" gradientUnits="userSpaceOnUse">
<stop stop-color="#FE9128"/>
<stop offset="0.00096858" stop-color="#FE9128"/>
<stop offset="0.382214" stop-color="#FE9128"/>
<stop offset="0.994923" stop-color="#FF5E3B"/>
<stop offset="0.99687" stop-color="#FF5E3B"/>
<stop offset="1" stop-color="#FF5E3B"/>
</linearGradient>
<linearGradient id="paint5_linear_33_971" x1="66.7413" y1="67.8948" x2="90.0695" y2="93.3437" gradientUnits="userSpaceOnUse">
<stop stop-color="#FE933A"/>
<stop offset="0.994923" stop-color="#FF7845"/>
<stop offset="1" stop-color="#FF7845"/>
</linearGradient>
<radialGradient id="paint6_radial_33_971" cx="0" cy="0" r="1" gradientUnits="userSpaceOnUse" gradientTransform="translate(84.644 71.5708) rotate(180) scale(46.7927 46.7927)">
<stop stop-color="#FE9128"/>
<stop offset="0.00096858" stop-color="#FE9128"/>
<stop offset="0.382214" stop-color="#FE9128"/>
<stop offset="0.994923" stop-color="#FF5E3B"/>
<stop offset="0.99687" stop-color="#FF5E3B"/>
<stop offset="1" stop-color="#FF5E3B"/>
</radialGradient>
<linearGradient id="paint7_linear_33_971" x1="17.1639" y1="100.124" x2="19.5686" y2="91.9149" gradientUnits="userSpaceOnUse">
<stop stop-color="#FE9128"/>
<stop offset="0.00096858" stop-color="#FE9128"/>
<stop offset="0.382214" stop-color="#FE9128"/>
<stop offset="0.994923" stop-color="#FF5E3B"/>
<stop offset="0.99687" stop-color="#FF5E3B"/>
<stop offset="1" stop-color="#FF5E3B"/>
</linearGradient>
<linearGradient id="paint8_linear_33_971" x1="66.7413" y1="67.8948" x2="90.0695" y2="93.3439" gradientUnits="userSpaceOnUse">
<stop stop-color="#F37C2E"/>
<stop offset="0.994923" stop-color="#F46537"/>
<stop offset="1" stop-color="#F46537"/>
</linearGradient>
<radialGradient id="paint9_radial_33_971" cx="0" cy="0" r="1" gradientUnits="userSpaceOnUse" gradientTransform="translate(84.644 71.5708) rotate(180) scale(46.7927 46.7927)">
<stop stop-color="#F37A20"/>
<stop offset="0.00096858" stop-color="#F37A20"/>
<stop offset="0.994923" stop-color="#F4502F"/>
<stop offset="1" stop-color="#F4502F"/>
</radialGradient>
<radialGradient id="paint10_radial_33_971" cx="0" cy="0" r="1" gradientUnits="userSpaceOnUse" gradientTransform="translate(84.644 71.5708) rotate(180) scale(46.7926 46.7927)">
<stop stop-color="#FEAE48"/>
<stop offset="0.00096858" stop-color="#FEAE48"/>
<stop offset="0.994923" stop-color="#FF8858"/>
<stop offset="1" stop-color="#FF8858"/>
</radialGradient>
<radialGradient id="paint11_radial_33_971" cx="0" cy="0" r="1" gradientUnits="userSpaceOnUse" gradientTransform="translate(84.6439 71.5708) rotate(180) scale(46.7927 46.7927)">
<stop stop-color="#FEAE48"/>
<stop offset="0.00096858" stop-color="#FEAE48"/>
<stop offset="0.994923" stop-color="#FF8858"/>
<stop offset="1" stop-color="#FF8858"/>
</radialGradient>
<linearGradient id="paint12_linear_33_971" x1="87.8825" y1="-5.08657" x2="43.745" y2="46.1386" gradientUnits="userSpaceOnUse">
<stop stop-color="#FEC145"/>
<stop offset="0.00096858" stop-color="#FEC145"/>
<stop offset="0.994923" stop-color="#FFA456"/>
<stop offset="1" stop-color="#FFA456"/>
</linearGradient>
</defs>
</svg>
